<?xml version="1.0" encoding="UTF-8"?>
<svg width="1200pt" height="1200pt" version="1.1" viewBox="0 0 1200 1200" xmlns="http://www.w3.org/2000/svg">
 <path d="m603.47 593.98-0.039062-0.023437c-7.457-4.4258-14.453 7.7812-6.9453 12.043v0.003906l0.039063 0.023438c7.4805 4.4961 14.527-7.8008 6.9453-12.047zm1.8086 9.3828c-4.5664 7.6797-14.59 0.39453-10.605-6.7461 4.5664-7.6797 14.594-0.39062 10.605 6.7461zm3.1484-2.4453h0.003906c0.37891-4.582-2.9648-8.6367-7.5391-9.1328s-8.7109 2.7422-9.3242 7.3008v0.003907l-0.003906 0.054687h-0.003906c-0.34766 4.5664 2.9922 8.582 7.543 9.0781 4.5547 0.49609 8.6797-2.7109 9.3203-7.2461l0.003907-0.054687zm-0.52734-0.054687c-2.293 10.57-17.367 8.4766-15.816-1.6641 2.293-10.566 17.371-8.4766 15.82 1.6641zm-11-11.102-0.066406 0.023438h-0.003907v-0.003906c-12.703 4.2422-6.7891 24.703 6.3242 20.445v-0.003906h0.003906l0.066406-0.023438c12.598-4.2852 6.7305-24.594-6.3203-20.438zm6.6016 20.047c-14.371 1.3086-17.844-14.352-6.9414-19.633 14.367-1.3086 17.844 14.352 6.9414 19.633zm6.3164-18.723h-0.003906l0.003906-0.003906-0.054687-0.0625c-11.402-12.5-30.645 5.2812-19.637 17.836h-0.003906l0.058594 0.0625v-0.003906l0.003906 0.003906h-0.003906c11.406 12.648 30.793-5.2656 19.641-17.84zm-2.1641 18.254c-13.035 11.262-26.66-8.0312-15.371-18.738 13.035-11.262 26.66 8.0352 15.371 18.738zm-1.1406-24.254 0.003906-0.003906c-3.9023-1.7969-8.3672-1.9453-12.379-0.41016-4.0156 1.5352-7.2422 4.6211-8.9492 8.5664h0.003906v0.003906h-0.003906l-0.042968 0.097657h0.003906c-2.2422 5.2617-1.5586 11.309 1.7969 15.938 3.3555 4.6289 8.8945 7.1602 14.59 6.668 5.6953-0.49609 10.715-3.9414 13.223-9.0781h0.003906l0.042969-0.097656h-0.003906 0.003906v-0.003906c1.7227-3.9805 1.8203-8.4766 0.26953-12.527-1.5469-4.0547-4.6211-7.3398-8.5625-9.1523zm8.1328 20.957c-0.27344 0.75781-1.2109-0.13281-1.5156 0.58594l0.003907-0.003906c-1.6992 3.5508-4.7266 6.293-8.4297 7.6289-3.6992 1.3359-7.7773 1.1602-11.352-0.48828-7.168-2.9453-12.152-14.027-7.2812-20.004 2.375-4.8164 7.0625-8.0664 12.406-8.6055 5.3438-0.53516 10.586 1.7188 13.871 5.9648 3.2891 4.2422 4.1562 9.8828 2.2969 14.922zm-14.324-26.641v-0.003907h-0.13281v0.003907h-0.003906l0.003906-0.003907c-7.1133 0.30078-13.566 4.25-17.074 10.441-3.5078 6.1914-3.5781 13.758-0.1875 20.012 3.3945 6.2578 9.7734 10.324 16.879 10.758v-0.003907h0.003906v0.003907h0.13281v-0.003907h-0.003906c7.0781-0.34766 13.484-4.3047 16.969-10.477 3.4805-6.1758 3.5508-13.703 0.18359-19.941-3.3672-6.2344-9.6992-10.309-16.77-10.789zm0.35156 40.652c-0.98047 0.074219-0.45312-1.4688-1.4023-1.4492v-0.003906c-6.4531-0.66797-12.145-4.5078-15.176-10.242-3.0312-5.7383-2.9961-12.605 0.089844-18.309 3.0859-5.707 8.8164-9.4922 15.273-10.098 0.98047-0.074219 0.44922 1.4688 1.4023 1.4492v0.003906c6.4531 0.66406 12.148 4.5078 15.176 10.242 3.0312 5.7344 3 12.605-0.089843 18.309-3.0859 5.707-8.8164 9.4922-15.273 10.094zm-10.684-42.934v-0.003907c-6.0781 2.7148-10.855 7.6992-13.305 13.891-2.4492 6.1875-2.3789 13.09 0.19922 19.23h-0.003907l0.066407 0.15234h0.003906v0.003906l-0.003906 0.003906v-0.003906c3.8633 7.9883 11.633 13.367 20.469 14.176 8.8359 0.80859 17.449-3.0742 22.699-10.23s6.3633-16.535 2.9375-24.723l-0.003907 0.003907v-0.003907h0.003907l-0.066407-0.15234-0.003906 0.003906-0.003906-0.003906c-2.7109-6.0312-7.7266-10.73-13.922-13.051-6.1953-2.3164-13.059-2.0625-19.066 0.70703zm18.512 44.582v-0.003907c-5.4922 2.5312-11.754 2.8242-17.461 0.81641-5.707-2.0039-10.406-6.1523-13.109-11.566-0.57031-1.0938 1.4102-1.2812 0.92188-2.3711v0.003906c-2.1992-5.7188-2.1211-12.062 0.21875-17.723 2.3398-5.6602 6.7617-10.211 12.355-12.707 5.4922-2.5312 11.758-2.8242 17.461-0.81641 5.707 2.0078 10.41 6.1523 13.109 11.566 0.57031 1.0977-1.4102 1.2773-0.92188 2.3711l0.003906-0.003906c2.1953 5.7188 2.1172 12.062-0.22266 17.723-2.3398 5.6641-6.7617 10.211-12.355 12.707zm-31.512-43.012 0.003906 0.003906-0.003906 0.003906-0.003907-0.003906-0.13672 0.15234 0.003907 0.003906c-25.953 30.457 17.902 72.719 46.008 42.609l0.003907 0.003907 0.13672-0.15625-0.003906-0.003907 0.003906-0.003906 0.003906 0.003906c26.297-30.5-17.898-73.078-46.016-42.613zm46.148 41.195c-0.94141 1.2227-2.1211-0.97656-3.0977 0.15625l0.003906-0.003906c-5.1758 5.4688-12.312 8.6602-19.84 8.8711-7.5234 0.21094-14.824-2.5742-20.301-7.7461-11.195-9.2344-13.922-33.574-1.6172-40.984h0.003907c7.2578-7.332 17.777-10.414 27.848-8.168 10.074 2.25 18.281 9.5156 21.734 19.238 3.4531 9.7266 1.6641 20.539-4.7344 28.637zm-10.574-57.375 0.003906-0.007812-0.23828-0.078125v0.003906h-0.007812l0.003906-0.007812c-47.727-14.598-72.039 58.859-24.652 75.152v-0.007812l0.007813 0.003906-0.003906 0.003906 0.23828 0.078126 0.003906-0.007813c47.5 14.238 71.629-58.672 24.645-75.133zm20.977 49.832c-2.7773 8.9609-8.8789 16.523-17.059 21.125-8.1797 4.6016-17.809 5.8945-26.91 3.6133-1.832-0.46094 0.035156-2.957-1.707-3.5v-0.003906c-8.7852-3.4023-15.898-10.086-19.848-18.641-3.9492-8.5508-4.4219-18.301-1.3164-27.195 2.7734-8.9609 8.8789-16.523 17.059-21.125 8.1758-4.6016 17.809-5.8945 26.91-3.6133 1.832 0.45703-0.035156 2.957 1.707 3.5v0.003906c8.7852 3.4023 15.898 10.086 19.848 18.641 3.9492 8.5508 4.4219 18.301 1.3164 27.195zm14.426-17.426v-0.007812h0.007812l-0.03125-0.31641h-0.007812c-2.125-16.883-12.98-31.398-28.578-38.203-15.594-6.8047-33.621-4.8906-47.438 5.0352-13.82 9.9258-21.391 26.398-19.926 43.348h-0.007813l0.03125 0.31641h0.007813v0.007812h-0.007813 0.003907c2.0273 16.965 12.875 31.594 28.523 38.461 15.645 6.8633 33.758 4.9414 47.613-5.0547 13.859-9.9961 21.395-26.574 19.816-43.586zm-3.0234-0.003906v-0.003906c-0.91797 0.10547-1.5898 0.91797-1.5195 1.8398 1.0469 15.676-6.1055 30.773-18.895 39.895-12.793 9.1172-29.398 10.957-43.875 4.8594-14.477-6.1016-24.762-19.27-27.168-34.793-0.0625-0.46094 0.066407-0.92969 0.35547-1.293 0.28906-0.36719 0.71484-0.59766 1.1758-0.64453 0.92188-0.10547 1.5938-0.91797 1.5234-1.8398-1.0469-15.676 6.1055-30.773 18.895-39.895 12.793-9.1172 29.398-10.957 43.875-4.8594 14.477 6.1016 24.758 19.266 27.168 34.793 0.0625 0.46094-0.066407 0.92578-0.35547 1.293-0.28906 0.36719-0.71484 0.59766-1.1797 0.64453zm-74.41-47.77 0.003906 0.007813-0.007812 0.003906-0.007812-0.007813-0.33594 0.19922 0.003906 0.007812c-64.746 40.637-10.375 143.39 58.93 105.7l0.003906 0.007813 0.33594-0.19922-0.003907-0.007813 0.007813-0.003906 0.003906 0.007813c65.402-40.52 10.602-144.05-58.934-105.72zm60.012 103.2c-2.4297 1.6719-3.2891-3.0664-5.7266-1.5859-63.781 32.531-113.09-59.992-55.707-98.875 2.4258-1.6719 3.2852 3.0664 5.7227 1.5859 63.781-32.535 113.09 59.988 55.711 98.871zm14.113-111.33 0.007813-0.011718-0.39062-0.28516-0.007813 0.011718-0.011719-0.007812 0.007813-0.011719c-79.781-55.121-164.73 63.938-88.543 122.59l0.007813-0.011718 0.007812 0.007812-0.007812 0.011719 0.39062 0.28516 0.007812-0.011719c79.59 54.309 163.9-63.852 88.527-122.56zm9.1914 103.8c-10.266 14.711-25.824 24.879-43.418 28.367-17.594 3.4922-35.859 0.03125-50.957-9.6484-3.0703-1.9414 1.7852-5.3867-1.0742-7.4375-14.004-11.5-23.047-27.945-25.25-45.934-2.207-17.984 2.5898-36.129 13.398-50.676 10.262-14.711 25.82-24.875 43.414-28.363 17.598-3.4922 35.859-0.03125 50.961 9.6484 0.58594 0.41406 0.97656 1.0508 1.0898 1.7617 0.10938 0.71094-0.074219 1.4375-0.50391 2.0117-0.84766 1.1562-0.63281 2.7695 0.48438 3.6602 14.004 11.504 23.047 27.949 25.254 45.934 2.2031 17.988-2.5938 36.133-13.398 50.676zm-34.93-133.38c-23.789-5.1953-48.672-0.69531-69.133 12.504-20.465 13.199-34.82 34.012-39.895 57.832l-0.015625-0.003907-0.125 0.59766 0.015625 0.003906-0.003906 0.015625-0.015625-0.003906c-21.48 119.91 151.43 158.64 180.49 39.273l-0.015626-0.003906 0.003907-0.015625 0.015625 0.003906 0.125-0.59766-0.015625-0.003906c4.832-23.984 0.050781-48.906-13.309-69.402-13.359-20.5-34.23-34.934-58.125-40.199zm69.727 105.76c-0.64844 4.5547-6.8867 0.70703-7.7539 5.0703-29.613 106.79-184.41 72.668-169.42-36.051 0.64844-4.5508 6.8867-0.70312 7.75-5.0664 29.617-106.79 184.42-72.672 169.42 36.047zm-111.52-129.66 0.003906 0.019531-0.019531 0.003906-0.003906-0.019531c-0.23828 0.066406-0.48047 0.11719-0.72656 0.16406l0.003906 0.019532c-141.96 36.484-102.22 255.39 45.766 228.9l0.003906 0.019531c0.24219-0.0625 0.48438-0.11719 0.72656-0.16406l-0.003906-0.019531 0.019531-0.003906 0.003907 0.019531c143.07-35.879 103-256.48-45.773-228.94zm49.184 224.97c-5.6367 1.5039-3.9766-7.5156-9.4922-6.3555-134.95 20.426-171.35-176.82-43.871-214.47 5.6328-1.5039 3.9766 7.5156 9.4922 6.3555 134.95-20.426 171.35 176.82 43.871 214.47zm90.418-195.13c-0.19141-0.24609-0.37109-0.49609-0.54297-0.75781l-0.019532 0.015625-0.015624-0.019532 0.019531-0.015624c-115.5-148.74-335.74 16.523-232.36 170.8l0.019531-0.015625 0.015625 0.019531-0.019531 0.015625c0.19141 0.24609 0.37109 0.49609 0.54297 0.75781l0.019531-0.015624c115.63 147.12 334.15-16.871 232.32-170.77zm-43.645 195.44c-27.418 20.676-61.809 29.871-95.891 25.633-34.078-4.2383-65.168-21.578-86.688-48.344-4.4766-5.7188 6.4062-8.4961 2.3711-14.25-89.102-141.58 108.38-290.95 217.18-161.15 4.4727 5.7148-6.4062 8.4961-2.375 14.246h0.003906c18.836 29.262 25.746 64.625 19.312 98.824-6.4375 34.199-25.73 64.633-53.914 85.043zm13.996-265.05c-26.426-15.824-56.598-24.309-87.398-24.57-30.805-0.26562-61.117 7.6992-87.809 23.07-26.695 15.371-48.801 37.59-64.031 64.363l-0.023438-0.015625c-0.17969 0.34766-0.37109 0.68359-0.57422 1.0156l0.023437 0.015625-0.015625 0.027344-0.023438-0.015625c-107.3 206.44 179.68 382.13 305.54 180.75l-0.027344-0.015625 0.015625-0.027344 0.023438 0.015625c0.17969-0.34766 0.37109-0.68359 0.57422-1.0156l-0.023437-0.015625c22.676-41.273 28.441-89.734 16.082-135.18-12.359-45.438-41.875-84.305-82.328-108.41zm65.375 235.52c-4.457 8.2617-12.348-3.168-17.051 4.5938-22.324 36.543-58.176 62.785-99.754 73.023-41.578 10.234-85.516 3.6328-122.25-18.371-36.992-22.047-64.277-57.27-76.383-98.598-12.102-41.328-8.1328-85.703 11.121-124.22 4.4609-8.2617 12.348 3.168 17.051-4.5938 118.79-178.12 376.75-21.125 287.27 168.17zm-127.52-304.45-0.003907 0.039062-0.039062-0.003906 0.003906-0.035156c-0.47656-0.03125-0.94531-0.074219-1.418-0.14062l-0.003906 0.035156c-282.78-15.574-333.38 403.88-49.812 446.3l-0.003906 0.039062c0.47656 0.03125 0.94531 0.074219 1.418 0.14062l0.003907-0.039062 0.039062 0.003906-0.003906 0.039062c284.59 17.152 335.46-405.18 49.82-446.38zm174.57 250.98c-5.1406 53.176-30.297 102.41-70.383 137.72-40.082 35.312-92.09 54.07-145.49 52.473-11.652-1.1289-2.3672-15.703-13.578-17.352-256.37-45.32-211.8-423.91 44.867-418.77 11.652 1.1289 2.3672 15.699 13.574 17.352h0.003906c52.719 8.1953 100.14 36.707 132.1 79.43 31.961 42.723 45.926 96.258 38.902 149.15zm-282.46-287.43c-69.168 22.648-126.63 71.621-159.96 136.32-33.324 64.703-39.824 139.93-18.098 209.39l0.042969-0.015625 0.015625 0.042969-0.042969 0.015625c0.20312 0.5625 0.38672 1.1328 0.54688 1.7109l0.042969-0.015626c126.47 338.51 615.99 172.79 521.93-172.18l0.042969-0.015625c-0.20312-0.56641-0.38672-1.1328-0.54688-1.7109l-0.042969 0.015626-0.015625-0.042969 0.042969-0.015625c-14.688-45.602-41.219-86.488-76.883-118.48-35.66-31.992-79.18-53.945-126.1-63.609-46.926-9.668-95.574-6.7031-140.98 8.5859zm327.67 178.93c-4.9922 1.6719-7.7812 6.9766-6.3242 12.035 17.547 64.328 9.707 132.94-21.902 191.65-31.609 58.707-84.57 103.02-147.93 123.79-62.461 21.016-130.64 16.941-190.16-11.363-59.512-28.309-105.7-78.629-128.81-140.35-0.87109-2.5-0.69531-5.25 0.48438-7.6211 1.1797-2.3711 3.2695-4.168 5.7891-4.9805 4.9922-1.668 7.7773-6.9766 6.3242-12.031-77.359-315.23 363.75-466.46 488.8-163.73 0.87109 2.5039 0.69531 5.25-0.48438 7.6211-1.1836 2.3711-3.2695 4.1641-5.7891 4.9766zm-468.41-178.28-0.039062-0.042969c-0.52734 0.52734-1.0703 1.0312-1.6328 1.5117l0.039063 0.042969-0.042969 0.039062-0.039062-0.042968c-314.41 311.29 102.62 807.77 450.79 514.99l-0.039063-0.042969 0.042969-0.039062 0.039062 0.042968c0.52734-0.52344 1.0703-1.0273 1.6328-1.5117l-0.039063-0.042969c310.73-310.73-103.26-804.01-450.71-514.91zm453.82 499.62c-2.3203 2.2891-5.4883 3.5078-8.7461 3.3594-3.2539-0.14453-6.3008-1.6406-8.4062-4.1289-2.0391-2.3555-4.9336-3.7969-8.0391-4.0078-3.1055-0.20703-6.168 0.83203-8.5039 2.8906-322.12 254.27-696.77-189.84-424.86-480.95 2.3203-2.2891 5.4883-3.5039 8.7422-3.3594 3.2539 0.14453 6.3008 1.6445 8.4023 4.1289 2.0391 2.3555 4.9336 3.7969 8.0391 4.0078 3.1094 0.20703 6.1719-0.83203 8.5078-2.8906 322.12-254.26 696.76 189.84 424.86 480.95zm-55.012-633.84-0.03125 0.066407-0.0625-0.03125 0.027343-0.066407c-0.85156-0.33984-1.6758-0.70703-2.4961-1.1133l-0.027344 0.066406c-509.72-198.86-838.64 540.93-350.09 786.3l-0.03125 0.066406c0.85156 0.33984 1.6758 0.70703 2.4961 1.1094l0.027344-0.066407 0.066406 0.027344-0.03125 0.066406c511.73 203.18 843.25-542.46 350.14-786.43zm171.69 564.43c-88.211 198.13-310.58 292.77-503.3 217.62-3.75-1.6094-6.6797-4.6719-8.125-8.4883-1.4414-3.8125-1.2734-8.0508 0.47266-11.738 1.6289-3.5469 1.8125-7.5859 0.51172-11.262-1.3008-3.6797-3.9805-6.707-7.4727-8.4414-437.56-234.39-142.99-902.88 325.08-738.92 3.7461 1.6094 6.6797 4.6719 8.1211 8.4883 1.4414 3.8164 1.2734 8.0508-0.47266 11.738-1.6289 3.5469-1.8125 7.5859-0.51172 11.262 1.3008 3.6797 3.9805 6.707 7.4727 8.4453 187.1 91.895 266.95 322.02 178.23 521.29zm178.03-171.19-0.003907-0.089844h0.089844c-27.73-696.45-1022.3-695.92-1049.8 0h0.089844l-0.003907 0.089844-0.085937 0.003906c0.042968 1.1562 0.042968 2.3047 0 3.4609h0.085937c31.547 691.91 1018.4 691.38 1049.6 0h0.085938c-0.042969-1.1562-0.042969-2.3047 0-3.4609zm-32.715 0v0.003906c-4.8438 0.03125-9.4844 1.9492-12.941 5.3438-3.4531 3.3984-5.4453 8.0078-5.5586 12.852-44.309 626.68-934.66 630.36-984.46 4.5195-0.15625-5.0625 1.75-9.9766 5.2812-13.609 3.5352-3.6289 8.3945-5.668 13.461-5.6484 4.8438-0.03125 9.4844-1.9492 12.941-5.3438 3.4531-3.3984 5.4453-8.0078 5.5586-12.852 44.309-626.69 934.66-630.36 984.46-4.5195 0.15625 5.0625-1.75 9.9766-5.2812 13.605-3.5352 3.6328-8.3945 5.6719-13.461 5.6484z"/>
</svg>
